<?xml version="1.0" encoding="iso-8859-1"?>
<!-- Generator: Adobe Illustrator 19.0.0, SVG Export Plug-In . SVG Version: 6.00 Build 0)  -->
<svg version="1.1" id="Capa_1" xmlns="http://www.w3.org/2000/svg" xmlns:xlink="http://www.w3.org/1999/xlink" x="0px" y="0px"
	 viewBox="0 0 512 512" style="enable-background:new 0 0 512 512;" xml:space="preserve" width="40px" fill="white">
<g transform="translate(1 1)">
	<g>
		<g>
			<path d="M504.508,474.582l-163.48-163.48c26.405-32.888,42.214-74.647,42.214-120.102c0-106.033-85.967-192-192-192
				s-192,85.967-192,192s85.967,192,192,192c45.207,0,86.759-15.635,119.563-41.78l163.532,163.532
				c8.331,8.331,21.839,8.331,30.17,0C512.84,496.42,512.84,482.913,504.508,474.582z M41.91,191
				c0-82.469,66.865-149.333,149.333-149.333S340.577,108.531,340.577,191c0,41.134-16.637,78.385-43.547,105.394
				c-0.152,0.143-0.313,0.269-0.462,0.417c-0.117,0.117-0.215,0.245-0.329,0.364c-26.977,26.679-64.061,43.158-104.995,43.158
				C108.775,340.333,41.91,273.469,41.91,191z"/>
			<path d="M254.757,169.667H212.09V127c0-11.782-9.551-21.333-21.333-21.333c-11.782,0-21.333,9.551-21.333,21.333v42.667h-42.667
				c-11.782,0-21.333,9.551-21.333,21.333c0,11.782,9.551,21.333,21.333,21.333h42.667V255c0,11.782,9.551,21.333,21.333,21.333
				c11.782,0,21.333-9.551,21.333-21.333v-42.667h42.667c11.782,0,21.333-9.551,21.333-21.333
				C276.09,179.218,266.539,169.667,254.757,169.667z"/>
		</g>
	</g>
</g>
</svg>
